<svg xmlns="http://www.w3.org/2000/svg" width="507.314" height="90.191"><path fill="#666" d="M84.909 68.755v-7.976c6.148 1.994 12.363 2.991 18.644 2.991 8.342 0 12.513-2.492 12.513-7.477 0-4.653-2.909-6.979-8.724-6.979h-7.477c-11.3 0-16.949-5.151-16.949-15.454 0-9.97 7.26-14.955 21.784-14.955 6.248 0 12.444.831 18.594 2.492v7.976c-6.15-1.994-12.346-2.991-18.594-2.991-8.707 0-13.061 2.492-13.061 7.477 0 4.653 2.742 6.979 8.226 6.979h7.477c11.964 0 17.946 5.152 17.946 15.454 0 9.97-7.246 14.955-21.735 14.955-6.281 0-12.496-.83-18.644-2.492zM147.97 18.904v52.343h-9.223V18.904h9.223zM159.493 45.076c0-17.447 8.307-26.172 24.925-26.172 16.617 0 24.925 8.724 24.925 26.172 0 17.415-8.308 26.122-24.925 26.122-16.551-.001-24.859-8.707-24.925-26.122zm24.925 18.694c10.469 0 15.703-6.298 15.703-18.893 0-12.329-5.234-18.495-15.703-18.495s-15.703 6.165-15.703 18.495c0 12.595 5.234 18.893 15.703 18.893zM247.103 19.178c12.262 1.271 17.666 5.578 17.881 19.219v32.851h-9.223V38.247c-.091-6.338-3.52-10.981-11.169-11.503-4.877-.333-10.961-.261-15.496 1.037l-.006 43.467h-9.223l-.024-50.205c8.132-2.253 19.514-2.625 27.26-1.865zM466.935 68.755v-7.976c6.148 1.994 12.363 2.991 18.644 2.991 8.342 0 12.513-2.492 12.513-7.477 0-4.653-2.909-6.979-8.724-6.979h-7.477c-11.3 0-16.949-5.151-16.949-15.454 0-9.97 7.26-14.955 21.784-14.955 6.248 0 12.444.831 18.594 2.492v7.976c-6.15-1.994-12.346-2.991-18.594-2.991-8.707 0-13.061 2.492-13.061 7.477 0 4.653 2.741 6.979 8.226 6.979h7.477c11.964 0 17.946 5.152 17.946 15.454 0 9.97-7.246 14.955-21.735 14.955a71.15 71.15 0 0 1-18.644-2.492zM372.688 18.904c-7.411 0-14.59.715-21.535 2.144v69.143h9.223V27.779c3.49-.797 7.559-1.196 12.213-1.196 10.8 0 16.201 5.7 16.201 17.099 0 13.061-5.434 19.591-16.301 19.591a29.05 29.05 0 0 1-6.403-.704v7.949c2.116.462 4.263.731 6.453.731 16.881 0 25.324-9.155 25.324-27.467 0-16.585-8.393-24.878-25.175-24.878zM429.797 18.904c-7.411 0-14.59.715-21.535 2.144v69.143h9.223V27.779c3.49-.797 7.559-1.196 12.213-1.196 10.8 0 16.201 5.7 16.201 17.099 0 13.061-5.434 19.591-16.301 19.591a29.05 29.05 0 0 1-6.403-.704v7.949c2.116.462 4.263.731 6.453.731 16.881 0 25.324-9.155 25.324-27.467-.001-16.585-8.394-24.878-25.175-24.878zM60.211 18.904h9.266v52.344h-9.266zM0 18.904h9.97l15.005 41.027 14.906-41.027h9.97L28.565 71.247h-8.574L0 18.904zM307.502 11.65l-23.523 59.598h-11.503L302.719 0h10.214l30.393 71.248h-12.151L307.502 11.65z"/></svg>